/* XPM */
static char *result[] = {
/* columns rows colors chars-per-pixel */
"64 64 179 2 ",
"   c black",
".  c #010101",
"X  c #020202",
"o  c gray1",
"O  c #040404",
"+  c gray2",
"@  c #060606",
"#  c gray3",
"$  c #090909",
"%  c gray4",
"&  c #0B0B0B",
"*  c #0C0C0C",
"=  c gray5",
"-  c #0E0E0E",
";  c gray6",
":  c #101010",
">  c #111111",
",  c gray7",
"<  c #131313",
"1  c gray8",
"2  c #151515",
"3  c #161616",
"4  c gray9",
"5  c #181818",
"6  c #191919",
"7  c gray10",
"8  c #1B1B1B",
"9  c gray11",
"0  c #1D1D1D",
"q  c #1E1E1E",
"w  c gray12",
"e  c #202020",
"r  c gray13",
"t  c #222222",
"y  c #232323",
"u  c gray14",
"i  c #252525",
"p  c gray15",
"a  c #272727",
"s  c #282828",
"d  c gray16",
"f  c #2A2A2A",
"g  c gray17",
"h  c #2C2C2C",
"j  c #2D2D2D",
"k  c gray18",
"l  c gray19",
"z  c #313131",
"x  c #353535",
"c  c gray21",
"v  c gray22",
"b  c #3C3C3C",
"n  c gray24",
"m  c #3E3E3E",
"M  c #3F3F3F",
"N  c gray25",
"B  c gray27",
"V  c #464646",
"C  c gray28",
"Z  c #484848",
"A  c #494949",
"S  c gray30",
"D  c gray32",
"F  c #565656",
"G  c #585858",
"H  c gray37",
"J  c #5F5F5F",
"K  c #606060",
"L  c #626262",
"P  c #676767",
"I  c #686868",
"U  c #6C6C6C",
"Y  c gray43",
"T  c #6F6F6F",
"R  c gray44",
"E  c #767676",
"W  c gray47",
"Q  c gray50",
"!  c #838383",
"~  c #898989",
"^  c #8B8B8B",
"/  c #8D8D8D",
"(  c gray56",
")  c #939393",
"_  c #959595",
"`  c gray59",
"'  c #979797",
"]  c #989898",
"[  c gray60",
"{  c #9A9A9A",
"}  c #9B9B9B",
"|  c gray61",
" . c #9D9D9D",
".. c gray62",
"X. c #9F9F9F",
"o. c gray63",
"O. c #A2A2A2",
"+. c gray64",
"@. c #A5A5A5",
"#. c gray65",
"$. c #A7A7A7",
"%. c #A9A9A9",
"&. c #AAAAAA",
"*. c #ACACAC",
"=. c gray68",
"-. c gray69",
";. c #B1B1B1",
":. c gray70",
">. c #B4B4B4",
",. c gray71",
"<. c gray72",
"1. c #B9B9B9",
"2. c gray73",
"3. c #BCBCBC",
"4. c gray",
"5. c gray75",
"6. c #C0C0C0",
"7. c #C1C1C1",
"8. c gray76",
"9. c gray77",
"0. c #C5C5C5",
"q. c #C6C6C6",
"w. c gray78",
"e. c #C8C8C8",
"r. c gray79",
"t. c #CACACA",
"y. c #CBCBCB",
"u. c gray80",
"i. c #CDCDCD",
"p. c #CECECE",
"a. c gray81",
"s. c #D0D0D0",
"d. c gray82",
"f. c #D2D2D2",
"g. c LightGray",
"h. c gray83",
"j. c #D5D5D5",
"k. c gray84",
"l. c #D7D7D7",
"z. c #D8D8D8",
"x. c gray85",
"c. c #DADADA",
"v. c gray86",
"b. c gainsboro",
"n. c #DDDDDD",
"m. c gray87",
"M. c #DFDFDF",
"N. c gray88",
"B. c #E1E1E1",
"V. c #E2E2E2",
"C. c gray89",
"Z. c #E4E4E4",
"A. c gray90",
"S. c #E6E6E6",
"D. c #E7E7E7",
"F. c gray91",
"G. c #E9E9E9",
"H. c #EAEAEA",
"J. c gray92",
"K. c #ECECEC",
"L. c gray93",
"P. c #EEEEEE",
"I. c #EFEFEF",
"U. c gray94",
"Y. c #F1F1F1",
"T. c gray95",
"R. c #F3F3F3",
"E. c #F4F4F4",
"W. c gray96",
"Q. c #F6F6F6",
"!. c gray97",
"~. c #F8F8F8",
"^. c #F9F9F9",
"/. c gray98",
"(. c #FBFBFB",
"). c gray99",
"_. c #FDFDFD",
"`. c #FEFEFE",
"'. c white",
/* pixels */
"          y         3 3 3 3 3 3 3 3 3 3 3 3 3 3 3 3 3 3 3 3 3 3 3 3 3 3 3 3 3 3 3 3 3 3 3 3 3 3 3 3 3 3 2 5         u O   .     ",
"  .   - 0   l o.f.D.L.L.L.P.P.P.P.L.L.P.L.P.P.P.P.L.L.P.L.P.P.P.P.L.L.P.L.P.P.P.P.L.L.P.L.P.P.P.P.L.L.L.L.P.F.k.&.A   : 2   .   ",
"    ,     O.T.'.'.'.'.'.'.'.'.'.'.'.'.'.'.'.'.'.'.'.'.'.'.'.'.'.'.'.'.'.'.'.'.'.'.'.'.'.'.'.'.'.'.'.'.'.'.'.'.'.'.~.:.    6   . ",
"  =     y.'.'._._.`.`.`.`.`.`.`.`.`.`.`.`.`.`.`.`.`.`.`.`.`.`.`.`.`.`.`.`.`.`.`.`.`.`.`.`.`.`.`.`.`.`.`.`.`.`._._.'.'.v.1   3   ",
"  q   t.'._.`.'.'.'.'.'.`._._._.`.'.'.'.'.'.'.'.'.'.'.'.'.'.'.'.'.'.'.'.'.'.'.'.'.'.'.'.'.'.'.'.`._._._.`.'.'.'.'.`.).'.b.  & @ ",
"t   ..'._.'.'.'.'.'.`._.'.'.'.'.'.`.`.'.'.'.'.'.'.'.'.'.'.'.'.'.'.'.'.'.'.'.'.'.'.'.'.'.'.'.`.`.'.'.'.'.'._.`.'.'.'.'.).'.<.  y ",
"  y U.'.`.'.'.'.'._.'.'.W.m.g.b.R.'.'._.'.'.'.'.'.'.'.'.'.'.'.'.'.'.'.'.'.'.'.'.'.'.'.'.'._.'.'.T.v.g.m.Q.'.'._.'.'.'.`.'.(.F   ",
"  [ '._.'.'.'.'._.'.R.O.b       l ] P.'._.'.'.'.'.'.'.'.'.'.'.'.'.'.'.'.'.'.'.'.'.'.'.'._.'.K._ h       N @.W.'._.'.'.'._.'.>.  ",
"  u.'._.'.'.'._.'.Z.n     7 r 8     : c.'._.'.'.'.'.'.'.'.'.'.'.'.'.'.'.'.'.'.'.'.'.'._.'.l.      8 r 6     C D.'._.'.'._.'.m.  ",
"  V.'.`.'.'.`.'.Y.z   k > o   X ; h     F.'._.'.'.'.'.'.'.'.'.'.'.'.'.'.'.'.'.'.'.'._.'.Z.    d - X   o > k   N R.'.`.'.`.'.U.s ",
"  G.'.`.'.'.`.'._   j   X       .   s   Q '.`.'.'.'.'.'.'.'.'.'.'.'.'.'.'.'.'.'.'.'.'.'.E   a   .       X   k   | '.`.'.`.'.E.M ",
"  H.'.`.'.`.'.L.  $ X .           X   0   C.'._.'.'.'.'.'.'.'.'.'.'.'.'.'.'.'.'.'._.'.M.  q X X           X *   e U.'.`.`.'.E.m ",
"  G.'.`.'._.'.a.  y   .               y   6.'._.'.'.'.'.'.'.'.'.'.'.'.'.'.'.'.'.'._.'.2.  p                   r   h.'._.`.'.E.M ",
"  G.'.`.'._.'.6.  u                   y   ;.'._.'.'.'.'.'.'.'.'.'.'.'.'.'.'.'.'.'._.'.%.  i                   i   w.'._.`.'.E.M ",
"  H.'.`.'._.'.q.  u   .               y   <.'._.'.'.'.'.'.'.'.'.'.'.'.'.'.'.'.'.'._.'.-.  p                   u   i.'._.`.'.E.M ",
"  H.'.`.'._.'.N.  0   .           .   y   h.'._.'.'.'.'.'.'.'.'.'.'.'.'.'.'.'.'.'._.'.a.  u               . O 3   Z.'.`.`.'.E.M ",
"  H.'.`.'.'.'.`.P   0               1   A ~.'.`.'.'.'.'.'.'.'.'.'.'.'.'.'.'.'.'.'.`.'.Q.b   1 .         .   e   R '.'.'.`.'.E.M ",
"  H.'.`.'.'._.'.g.  i 7           1 k   0.'._.'.'.'.'.'.'.'.'.'.'.'.'.'.'.'.'.'.'.'._.'.5.  l :           7 t   z.'._.'.`.'.E.M ",
"  H.'.`.'.'.'.`.'.:.    a u e y a     O.'.`.'.'.'.'.'.'.'.'.'.'.'.'.'.'.'.'.'.'.'.'.'.'.'. .    a y e u a     1.'._.'.'.`.'.E.M ",
"  H.'.`.'.'.'.'.`.'.w.v           e 3.'.'.`.'.'.'.'.'.'.'.'.'.'.'.'.'.'.'.'.'.'.'.'.'.`.'.'.<.,           m t.'.`.'.'.'.`.'.E.M ",
"  H.'.`.'.'.'.'.'.`.'.W.q.../ | 8.Y.'.'.`.'.'.'.'.'.'.'.'.'.'.'.'.'.'.'.'.'.'.'.'.'.'.'.`.'.'.U.6.} / X.e.Q.'.`.'.'.'.'.`.'.E.M ",
"  H.'.`.'.'.'.'.'.'._.'.'.'.'.'.'.'._.'.'.'.'.'.'.'.'.'.'.'.'.'.'.'.'.'.'.'.'.'.'.'.'.'.'.'._.'.'.'.'.'.'.'._.'.'.'.'.'.`.'.E.M ",
"  H.'.`.'.'.'.'.'.'.'.`._._.`._._.`.'.'.'.'.'.'.'.'.'.'.'.'.`._._._.`.'.'.'.'.'.'.'.'.'.'.'.'.`._._.`._._.`.'.'.'.'.'.'.`.'.E.M ",
"  H.'.`.'.'.'.'.'.'.'.'.'.'.'.'.'.'.'.'.'.'.'.'.'.'.'.'.`.`.'.'.'.'.'._.`.'.'.'.'.'.'.'.'.'.'.'.'.'.'.'.'.'.'.'.'.'.'.'.`.'.E.M ",
"  H.'.`.'.'.'.'.'.'.'.'.'.'.'.'.'.'.'.'.'.'.'.'.'.'.'._.'.'.Y.x.a.c.Y.'.'._.'.'.'.'.'.'.'.'.'.'.'.'.'.'.'.'.'.'.'.'.'.'.`.'.E.M ",
"  H.'.`.'.'.'.'.'.'.'.'.'.'.'.'.'.'.'.'.'.'.'.'.'.'._.'.L.` a       g { I.'._.'.'.'.'.'.'.'.'.'.'.'.'.'.'.'.'.'.'.'.'.'.`.'.E.M ",
"  H.'.`.'.'.'.'.'.'.'.'.'.'.'.'.'.'.'.'.'.'.'.'.'._.'.v.#     8 e 8     t m.'._.'.'.'.'.'.'.'.'.'.'.'.'.'.'.'.'.'.'.'.'.`.'.E.M ",
"  H.'.`.'.'.'.'.'.'.'.'.'.'.'.'.'.'.'.'.'.'.'.'.`.'.G.    g & O X + * h   o K.'.`.'.'.'.'.'.'.'.'.'.'.'.'.'.'.'.'.'.'.'.`.'.E.M ",
"  H.'.`.'.'.'.'.'.'.'.'.'.'.'.'.'.'.'.'.'.'.'.'.`.'.!   f   X     . X   g   ^ '.`.'.'.'.'.'.'.'.'.'.'.'.'.'.'.'.'.'.'.'.`.'.E.M ",
"  H.'.`.'.'.'.'.'.'.'.'.'.'.'.'.'.'.'.'.'.'.'.`.'.A.  5   .           X @ :   G.'.`.'.'.'.'.'.'.'.'.'.'.'.'.'.'.'.'.'.'.`.'.E.M ",
"  H.'.`.'.'.'.'.'.'.'.'.'.'.'.'.'.'.'.'.'.'.'._.'.9.  p                 . t   t.'._.'.'.'.'.'.'.'.'.'.'.'.'.'.'.'.'.'.'.`.'.E.M ",
"  H.'.`.'.'.'.'.'.'.'.'.'.'.'.'.'.'.'.'.'.'.'._.'.,.  i                   u   2.'._.'.'.'.'.'.'.'.'.'.'.'.'.'.'.'.'.'.'.`.'.E.M ",
"  H.'.`.'.'.'.'.'.'.'.'.'.'.'.'.'.'.'.'.'.'.'._.'.3.  p                   y   8.'._.'.'.'.'.'.'.'.'.'.'.'.'.'.'.'.'.'.'.`.'.E.M ",
"  H.'.`.'.'.'.'.'.'.'.'.'.'.'.'.'.'.'.'.'.'.'._.'.x.  t               . o 9   n.'._.'.'.'.'.'.'.'.'.'.'.'.'.'.'.'.'.'.'.`.'.E.M ",
"  H.'.`.'.'.'.'.'.'.'.'.'.'.'.'.'.'.'.'.'.'.'.`.'.(.G   8               0   L _.'.`.'.'.'.'.'.'.'.'.'.'.'.'.'.'.'.'.'.'.`.'.E.M ",
"  H.'.`.'.'.'.'.'.'.'.'.'.'.'.'.'.'.'.'.'.'.'.'._.'.u.  d 3           4 p   d.'._.'.'.'.'.'.'.'.'.'.'.'.'.'.'.'.'.'.'.'.`.'.E.M ",
"  H.'.`.'.'.'.'.'.'.'.'.'.'.'.'.'.'.'.'.'.'.'.'.'.`.'.=.    s y e u s     :.'.`.'.'.'.'.'.'.'.'.'.'.'.'.'.'.'.'.'.'.'.'.`.'.E.M ",
"  H.'.`.'.'.'.'.'.'.'.'.'.'.'.'.'.'.'.'.'.'.'.'.'.`.'.'.9.c           b e.'.`.'.'.'.'.'.'.'.'.'.'.'.'.'.'.'.'.'.'.'.'.'.`.'.E.M ",
"  H.'.`.'.'.'.'.'.'.'.'.'.'.'.'.'.'.'.'.'.'.'.'.'.'.`.`.'.E.e.O.) +.t.Q.'.`.'.'.'.'.'.'.'.'.'.'.'.'.'.'.'.'.'.'.'.'.'.'.`.'.E.M ",
"  H.'.`.'.'.'.'.'.'.'.'.'.'.'.'.'.'.'.'.'.'.'.'.'.'.'.'._.'.'.'.'.'.'.'._.'.'.'.'.'.'.'.'.'.'.'.'.'.'.'.'.'.'.'.'.'.'.'.`.'.E.M ",
"  H.'.`.'.'.'.'.'.'.'.'.`._._._.`.'.'.'.'.'.'.'.'.'.'.'.'.`._._.`._._.`.'.'.'.'.'.'.'.'.'.'.'.'.`._._._.`.'.'.'.'.'.'.'.`.'.E.M ",
"  H.'.`.'.'.'.'.'.'.`._.'.'.'.'.'.`.`.'.'.'.'.'.'.'.'.'.'.'.'.'.'.'.'.'.'.'.'.'.'.'.'.'.'.'._.`.'.'.'.'.'._.`.'.'.'.'.'.`.'.E.M ",
"  H.'.`.'.'.'.'.'._.'.'.U.k.i.j.L.'.'._.'.'.'.'.'.'.'.'.'.'.'.'.'.'.'.'.'.'.'.'.'.'.'.'.'._.'.'.K.h.i.l.Y.'.'._.'.'.'.'.`.'.E.M ",
"  H.'.`.'.'.'.'._.'.I.' r       @ / G.'._.'.'.'.'.'.'.'.'.'.'.'.'.'.'.'.'.'.'.'.'.'.'.'._.'.S.~         a { Y.'._.'.'.'.`.'.E.M ",
"  H.'.`.'.'.'._.'.M.w     w r w .     h.'._.'.'.'.'.'.'.'.'.'.'.'.'.'.'.'.'.'.'.'.'.'._.'.s.    @ w r q     l V.'._.'.'.`.'.E.M ",
"  H.'.`.'.'.`.'.L.<   j +       o d     Z.'._.'.'.'.'.'.'.'.'.'.'.'.'.'.'.'.'.'.'.'._.'.N.    a X       @ h   g U.'.`.'.`.'.E.M ",
"  H.'.`.'.'.`.'.(   h   . . . . .   a   W '.'.'.'.'.'.'.'.'.'.'.'.'.'.'.'.'.'.'.'.`.'.'.T   p   . . . . .   k   ` '.`.'.`.'.E.M ",
"  H.'.`.'.`.'.J.  * . .           X   0   N.'._.'.'.'.'.'.'.'.'.'.'.'.'.'.'.'.'.'._.'.n.  q X .           X &   : P.'.`.`.'.E.M ",
"  H.'.`.'._.'.i.  y   .               u   5.'._.'.'.'.'.'.'.'.'.'.'.'.'.'.'.'.'.'._.'.<.  p                   t   g.'._.`.'.E.M ",
"  H.'.`.'._.'.6.  u                   y   ;.'._.'.'.'.'.'.'.'.'.'.'.'.'.'.'.'.'.'._.'.%.  i                   i   w.'._.`.'.E.M ",
"  H.'.`.'._.'.w.  u   .               y   <.'._.'.'.'.'.'.'.'.'.'.'.'.'.'.'.'.'.'._.'.;.  p                   y   i.'._.`.'.E.M ",
"  G.'.`.'._.'.V.  8   .           .   t   k.'._.'.'.'.'.'.'.'.'.'.'.'.'.'.'.'.'.'._.'.d.  y               . + <   S.'.`.`.'.E.M ",
"  G.'.`.'.'.'.'.Y   r   .       .   6   D /.'.`.'.'.'.'.'.'.'.'.'.'.'.'.'.'.'.'.'.`.'.!.V   6   .       .   u   E '.'.'.`.'.E.m ",
"  G.'.`.'.'._.'.z.  q 9           2 f   y.'._.'.'.'.'.'.'.'.'.'.'.'.'.'.'.'.'.'.'.'._.'.0.  h >           9 5   b.'._.'.`.'.E.N ",
"  Z.'.`.'.'.'._.'.3.    p y r y p     *.'.`.'.'.'.'.'.'.'.'.'.'.'.'.'.'.'.'.'.'.'.'.'.`.'.$.    a y r y a     6.'._.'.'.`.'.T.z ",
"  f.'._.'.'.'.'.`.'.a.S           b 0.'.'.`.'.'.'.'.'.'.'.'.'.'.'.'.'.'.'.'.'.'.'.'.'.`.'.'.7.x           D f.'.`.'.'.'.`.'.C.  ",
"  @.'._.'.'.'.'.'.`.'.^.p.&.} $.t.W.'.`.`.'.'.'.'.'.'.'.'.'.'.'.'.'.'.'.'.'.'.'.'.'.'.'.`.`.'.E.r.#.} &.s./.'._.'.'.'.'._.'.4.  ",
"  B !.'.`.'.'.'.'.'._.'.'.'.'.'.'.'._.'.'.'.'.'.'.'.'.'.'.'.'.'.'.'.'.'.'.'.'.'.'.'.'.'.'.'._.'.'.'.'.'.'.'._.'.'.'.'.'.'.'.U   ",
"u   :.'.).'.'.'.'.'.'.`._._.`._._.`.'.'.'.'.'.'.'.'.'.'.'.'.'.'.'.'.'.'.'.'.'.'.'.'.'.'.'.'.'.`._._.`._._.`.'.'.'.'.'.).'.t.  r ",
"+ =   n.'.).`.'.'.'.'.'.'.'.'.'.'.'.'.'.'.'.'.'.'.'.'.'.'.'.'.'.'.'.'.'.'.'.'.'.'.'.'.'.'.'.'.'.'.'.'.'.'.'.'.'.'.'.).'.K.s   ; ",
"  4   i B.'.'._.`.`.`.`.`.`.`.`.`.`.`.`.`.`.`.`.`.`.`.`.`.`.`.`.`.`.`.`.`.`.`.`.`.`.`.`.`.`.`.`.`.`.`.`.`.`.`.`._.`.'.L.D   q   ",
".   8     7.`.'.'.'.'.'.'.'.'.'.'.'.'.'.'.'.'.'.'.'.'.'.'.'.'.'.'.'.'.'.'.'.'.'.'.'.'.'.'.'.'.'.'.'.'.'.'.'.'.'.'.'.p.z   e   . ",
"  .   5     I 6.D.Q.(.).).).).).).).).).).).).).).).).).).).).).).).).).).).).).).).).).).).).).).).).).).(.!.H.w.W     q   .   ",
"    .   % y       Z H K K K K K K K K K K K K K K K K K K K K K K K K K K K K K K K K K K K K K K K K K K J S       w >   .     "
};
