/* XPM */
static char *result[] = {
/* columns rows colors chars-per-pixel */
"64 64 170 2 ",
"   c black",
".  c #010101",
"X  c #020202",
"o  c gray1",
"O  c #040404",
"+  c gray2",
"@  c #060606",
"#  c #070707",
"$  c gray3",
"%  c #090909",
"&  c gray4",
"*  c #0C0C0C",
"=  c #0E0E0E",
"-  c gray6",
";  c #101010",
":  c #111111",
">  c gray7",
",  c #131313",
"<  c #151515",
"1  c #161616",
"2  c gray9",
"3  c #181818",
"4  c #191919",
"5  c gray10",
"6  c #1B1B1B",
"7  c gray11",
"8  c #1D1D1D",
"9  c #1E1E1E",
"0  c gray12",
"q  c #202020",
"w  c gray13",
"e  c #222222",
"r  c #232323",
"t  c gray14",
"y  c #252525",
"u  c gray15",
"i  c #272727",
"p  c #282828",
"a  c gray16",
"s  c #2A2A2A",
"d  c gray17",
"f  c #2C2C2C",
"g  c #2D2D2D",
"h  c gray18",
"j  c #2F2F2F",
"k  c gray19",
"l  c #323232",
"z  c #353535",
"x  c #373737",
"c  c gray24",
"v  c #3E3E3E",
"b  c #3F3F3F",
"n  c gray25",
"m  c #414141",
"M  c #434343",
"N  c #444444",
"B  c gray27",
"V  c #464646",
"C  c gray28",
"Z  c #484848",
"A  c #4E4E4E",
"S  c gray33",
"D  c gray34",
"F  c #585858",
"G  c gray35",
"H  c gray36",
"J  c #606060",
"K  c gray38",
"L  c gray39",
"P  c #686868",
"I  c #6A6A6A",
"U  c gray44",
"Y  c #717171",
"T  c #747474",
"R  c gray47",
"E  c #7E7E7E",
"W  c #818181",
"Q  c #838383",
"!  c gray52",
"~  c gray53",
"^  c #888888",
"/  c #898989",
"(  c gray55",
")  c #8D8D8D",
"_  c #8E8E8E",
"`  c gray58",
"'  c #9A9A9A",
"]  c #9B9B9B",
"[  c gray61",
"{  c #9D9D9D",
"}  c #A0A0A0",
"|  c gray63",
" . c gray64",
".. c #A4A4A4",
"X. c #A5A5A5",
"o. c gray66",
"O. c #AAAAAA",
"+. c #ACACAC",
"@. c gray68",
"#. c #AFAFAF",
"$. c #B1B1B1",
"%. c gray70",
"&. c #B4B4B4",
"*. c gray71",
"=. c #B6B6B6",
"-. c #B7B7B7",
";. c gray72",
":. c gray73",
">. c #BBBBBB",
",. c #BCBCBC",
"<. c gray74",
"1. c gray",
"2. c gray75",
"3. c #C0C0C0",
"4. c #C1C1C1",
"5. c gray76",
"6. c #C3C3C3",
"7. c gray77",
"8. c #C5C5C5",
"9. c #C6C6C6",
"0. c gray78",
"q. c #C8C8C8",
"w. c gray79",
"e. c #CBCBCB",
"r. c gray80",
"t. c #CDCDCD",
"y. c #CECECE",
"u. c gray81",
"i. c #D0D0D0",
"p. c gray82",
"a. c #D2D2D2",
"s. c gray83",
"d. c #D5D5D5",
"f. c gray84",
"g. c #D7D7D7",
"h. c #D8D8D8",
"j. c gray85",
"k. c gray86",
"l. c #DDDDDD",
"z. c gray87",
"x. c #DFDFDF",
"c. c gray88",
"v. c #E1E1E1",
"b. c #E2E2E2",
"n. c gray89",
"m. c #E4E4E4",
"M. c gray90",
"N. c #E6E6E6",
"B. c #E7E7E7",
"V. c gray91",
"C. c #E9E9E9",
"Z. c #EAEAEA",
"A. c gray92",
"S. c #ECECEC",
"D. c #EEEEEE",
"F. c gray94",
"G. c #F1F1F1",
"H. c gray95",
"J. c #F3F3F3",
"K. c #F4F4F4",
"L. c gray96",
"P. c #F6F6F6",
"I. c gray97",
"U. c #F9F9F9",
"Y. c gray98",
"T. c #FBFBFB",
"R. c gray99",
"E. c #FDFDFD",
"W. c #FEFEFE",
"Q. c white",
/* pixels */
"    .   ; q       C F D D D D D D D D D D D D D D D D D D D D D D D D D D D D D D D D D D D D D D D D D D D m       r $   .     ",
"  .   8     T 8.V.P.Y.Y.Y.Y.Y.Y.Y.Y.Y.Y.Y.Y.Y.Y.Y.Y.Y.Y.Y.Y.Y.Y.Y.Y.Y.Y.Y.Y.Y.Y.Y.Y.Y.Y.Y.Y.Y.Y.Y.Y.Y.Y.Y.Y.L.M.<.L   . 3   .   ",
".   q   a r.Q.Q.Q.Q.Q.Q.Q.Q.Q.Q.Q.Q.Q.Q.Q.Q.Q.Q.Q.Q.Q.Q.Q.Q.Q.Q.Q.Q.Q.Q.Q.Q.Q.Q.Q.Q.Q.Q.Q.Q.Q.Q.Q.Q.Q.Q.Q.Q.Q.Q.Q.E.1.    5   . ",
"  8   A S.Q.W.E.W.W.W.W.W.Q.Q.Q.W.W.W.W.W.W.W.W.W.W.W.W.W.W.W.W.W.W.W.W.W.W.W.W.W.W.W.W.W.W.W.W.W.Q.Q.W.W.W.W.W.E.Q.Q.x.9   1   ",
"=   w Z.Q.R.Q.Q.Q.Q.Q.Q.E.E.E.E.W.Q.Q.Q.Q.Q.Q.Q.Q.Q.Q.Q.Q.Q.Q.Q.Q.Q.Q.Q.Q.Q.Q.Q.Q.Q.Q.Q.Q.Q.Q.W.E.E.E.E.W.Q.Q.Q.Q.W.R.Q.k.  ; O ",
"e   q.Q.R.Q.Q.Q.Q.Q.E.Q.Q.Q.Q.Q.Q.W.W.Q.Q.Q.Q.Q.Q.Q.Q.Q.Q.Q.Q.Q.Q.Q.Q.Q.Q.Q.Q.Q.Q.Q.Q.Q.Q.Q.E.Q.Q.Q.Q.Q.Q.W.W.Q.Q.Q.Q.R.Q.$.  t ",
"  I Q.Q.Q.Q.Q.Q.Q.E.Q.Q.b.8.>.w.V.Q.Q.E.Q.Q.Q.Q.Q.Q.Q.Q.Q.Q.Q.Q.Q.Q.Q.Q.Q.Q.Q.Q.Q.Q.Q.Q.Q.W.Q.E.z.6.,.t.S.Q.Q.E.Q.Q.Q.W.Q.P.M   ",
"  <.Q.E.Q.Q.Q.Q.W.Q.k.Y           ! V.Q.E.Q.Q.Q.Q.Q.Q.Q.Q.Q.Q.Q.Q.Q.Q.Q.Q.Q.Q.Q.Q.Q.Q.Q.Q.Q.u.J           ` G.Q.E.Q.Q.Q.E.Q...  ",
"  b.Q.E.Q.Q.Q.E.Q.5.    4 y u y :     h.Q.E.Q.Q.Q.Q.Q.Q.Q.Q.Q.Q.Q.Q.Q.Q.Q.Q.Q.Q.Q.Q.Q.W.Q.#.    9 y u t %   z N.Q.E.Q.Q.E.Q.p.  ",
"k G.Q.W.Q.Q.E.Q.g.  1 r o       @ s     Z.Q.W.Q.Q.Q.Q.Q.Q.Q.Q.Q.Q.Q.Q.Q.Q.Q.Q.Q.Q.Q.E.Q.7.  a 7 .       $ g   V L.Q.W.Q.W.Q.m.  ",
"n K.Q.W.Q.Q.Q.E.J   9   .       .   a   ) Q.W.Q.Q.Q.Q.Q.Q.Q.Q.Q.Q.Q.Q.Q.Q.Q.Q.Q.Q.W.Q.K.l   1           X   h   o.Q.E.Q.W.Q.C.  ",
"v K.Q.W.Q.E.Q.h.  t   .           . X &   S.Q.W.Q.Q.Q.Q.Q.Q.Q.Q.Q.Q.Q.Q.Q.Q.Q.Q.Q.E.Q.8.  p               X ,   Z I.Q.W.W.Q.C.  ",
"b K.Q.W.Q.E.Q.*.  t               .   w   p.Q.E.Q.Q.Q.Q.Q.Q.Q.Q.Q.Q.Q.Q.Q.Q.Q.Q.Q.E.Q.{   t                 + <   b.Q.W.W.Q.C.  ",
"b K.Q.W.Q.E.Q.o.  r                   e   9.Q.E.Q.Q.Q.Q.Q.Q.Q.Q.Q.Q.Q.Q.Q.Q.Q.Q.Q.W.Q.(   q                 . 7   j.Q.E.W.Q.Z.  ",
"b K.Q.W.Q.E.Q.%.  t               .   w   u.Q.E.Q.Q.Q.Q.Q.Q.Q.Q.Q.Q.Q.Q.Q.Q.Q.Q.Q.E.Q.'   r                 O 1   c.Q.E.W.Q.Z.  ",
"b K.Q.W.Q.E.Q.s.  y   .           .   ;   C.Q.W.Q.Q.Q.Q.Q.Q.Q.Q.Q.Q.Q.Q.Q.Q.Q.Q.Q.E.Q.4.  p               X :   v L.Q.W.W.Q.Z.  ",
"b K.Q.W.Q.W.Q.Y.S   4   .       .   u   Q Q.W.Q.Q.Q.Q.Q.Q.Q.Q.Q.Q.Q.Q.Q.Q.Q.Q.Q.Q.W.Q.F.4   :           X   d   } Q.E.Q.W.Q.Z.  ",
"b K.Q.W.Q.Q.E.Q.u.  t 9 .       X u     m.Q.E.Q.Q.Q.Q.Q.Q.Q.Q.Q.Q.Q.Q.Q.Q.Q.Q.Q.Q.Q.E.Q.:.  j 1         o s   a G.Q.W.Q.W.Q.Z.  ",
"b K.Q.W.Q.Q.Q.W.Q.=.    w u y u 8     y.Q.E.Q.Q.Q.Q.Q.Q.Q.Q.Q.Q.Q.Q.Q.Q.Q.Q.Q.Q.Q.Q.Q.Q.Q.}     r y y y 6     z.Q.E.Q.Q.W.Q.Z.  ",
"b K.Q.W.Q.Q.Q.Q.W.Q.i.G           U x.Q.E.Q.Q.Q.Q.Q.Q.Q.Q.Q.Q.Q.Q.Q.Q.Q.Q.Q.Q.Q.Q.Q.Q.W.Q.Q.5.B           W C.Q.E.Q.Q.Q.W.Q.Z.  ",
"b K.Q.W.Q.Q.Q.Q.Q.W.Q.T.g.-.+.,.z.Q.Q.E.Q.Q.Q.Q.Q.Q.Q.Q.Q.Q.Q.Q.Q.Q.Q.Q.Q.Q.Q.Q.Q.Q.Q.Q.W.W.Q.I.a.*.+.3.n.Q.Q.E.Q.Q.Q.Q.W.Q.Z.  ",
"b K.Q.W.Q.Q.Q.Q.Q.Q.E.Q.Q.Q.Q.Q.Q.Q.E.Q.Q.Q.Q.Q.Q.Q.Q.Q.Q.Q.Q.Q.Q.Q.Q.Q.Q.Q.Q.Q.Q.Q.Q.Q.Q.Q.E.Q.Q.Q.Q.Q.Q.W.W.Q.Q.Q.Q.Q.W.Q.Z.  ",
"b K.Q.W.Q.Q.Q.Q.Q.Q.Q.W.E.E.E.E.E.Q.Q.Q.Q.Q.Q.Q.Q.Q.Q.Q.Q.Q.Q.Q.Q.Q.Q.Q.Q.Q.Q.Q.Q.Q.Q.Q.Q.Q.Q.W.E.E.E.E.E.Q.Q.Q.Q.Q.Q.Q.W.Q.Z.  ",
"b K.Q.W.Q.Q.Q.Q.Q.Q.Q.Q.Q.Q.Q.Q.Q.Q.Q.Q.Q.Q.Q.Q.Q.Q.Q.Q.Q.Q.Q.Q.Q.Q.Q.Q.Q.Q.Q.Q.Q.Q.Q.Q.Q.Q.Q.Q.Q.Q.Q.Q.Q.Q.Q.Q.Q.Q.Q.Q.W.Q.Z.  ",
"b K.Q.W.Q.Q.Q.Q.Q.Q.Q.Q.Q.Q.Q.Q.Q.Q.Q.Q.Q.Q.Q.Q.Q.Q.Q.Q.Q.Q.Q.Q.Q.Q.Q.Q.Q.Q.Q.Q.Q.Q.Q.Q.Q.Q.Q.Q.Q.Q.Q.Q.Q.Q.Q.Q.Q.Q.Q.Q.W.Q.Z.  ",
"b K.Q.W.Q.Q.Q.Q.Q.Q.Q.Q.Q.Q.Q.Q.Q.Q.Q.Q.Q.Q.Q.Q.Q.Q.Q.Q.Q.Q.Q.Q.Q.Q.Q.Q.Q.Q.Q.Q.Q.Q.Q.Q.Q.Q.Q.Q.Q.Q.Q.Q.Q.Q.Q.Q.Q.Q.Q.Q.W.Q.Z.  ",
"b K.Q.W.Q.Q.Q.Q.Q.Q.Q.Q.Q.Q.Q.Q.Q.Q.Q.Q.Q.Q.Q.Q.Q.Q.Q.Q.Q.Q.Q.Q.Q.Q.Q.Q.Q.Q.Q.Q.Q.Q.Q.Q.Q.Q.Q.Q.Q.Q.Q.Q.Q.Q.Q.Q.Q.Q.Q.Q.W.Q.Z.  ",
"b K.Q.W.Q.Q.Q.Q.Q.Q.Q.Q.Q.Q.Q.Q.Q.Q.Q.Q.Q.Q.Q.Q.Q.Q.Q.Q.Q.Q.Q.Q.Q.Q.Q.Q.Q.Q.Q.Q.Q.Q.Q.Q.Q.Q.Q.Q.Q.Q.Q.Q.Q.Q.Q.Q.Q.Q.Q.Q.W.Q.Z.  ",
"b K.Q.W.Q.Q.Q.Q.Q.Q.Q.Q.Q.Q.Q.Q.Q.Q.Q.Q.Q.Q.Q.Q.Q.Q.Q.Q.Q.Q.Q.Q.Q.Q.Q.Q.Q.Q.Q.Q.Q.Q.Q.Q.Q.Q.Q.Q.Q.Q.Q.Q.Q.Q.Q.Q.Q.Q.Q.Q.W.Q.Z.  ",
"b K.Q.W.Q.Q.Q.Q.Q.Q.Q.Q.Q.Q.Q.Q.Q.Q.Q.Q.Q.Q.Q.Q.Q.Q.Q.Q.Q.Q.Q.Q.Q.Q.Q.Q.Q.Q.Q.Q.Q.Q.Q.Q.Q.Q.Q.Q.Q.Q.Q.Q.Q.Q.Q.Q.Q.Q.Q.Q.W.Q.Z.  ",
"b K.Q.W.Q.Q.Q.Q.Q.Q.Q.Q.Q.Q.Q.Q.Q.Q.Q.Q.Q.Q.Q.Q.Q.Q.Q.Q.Q.Q.Q.Q.Q.Q.Q.Q.Q.Q.Q.Q.Q.Q.Q.Q.Q.Q.Q.Q.Q.Q.Q.Q.Q.Q.Q.Q.Q.Q.Q.Q.W.Q.Z.  ",
"b K.Q.W.Q.Q.Q.Q.Q.Q.Q.Q.Q.Q.Q.Q.Q.Q.Q.Q.Q.Q.Q.Q.Q.Q.Q.Q.Q.Q.Q.Q.Q.Q.Q.Q.Q.Q.Q.Q.Q.Q.Q.Q.Q.Q.Q.Q.Q.Q.Q.Q.Q.Q.Q.Q.Q.Q.Q.Q.W.Q.Z.  ",
"b K.Q.W.Q.Q.Q.Q.Q.Q.Q.Q.Q.Q.Q.Q.Q.Q.Q.Q.Q.Q.Q.Q.Q.Q.Q.Q.Q.Q.Q.Q.Q.Q.Q.Q.Q.Q.Q.Q.Q.Q.Q.Q.Q.Q.Q.Q.Q.Q.Q.Q.Q.Q.Q.Q.Q.Q.Q.Q.W.Q.Z.  ",
"b K.Q.W.Q.Q.Q.Q.Q.Q.Q.Q.Q.Q.Q.Q.Q.Q.Q.Q.Q.Q.Q.Q.Q.Q.Q.Q.Q.Q.Q.Q.Q.Q.Q.Q.Q.Q.Q.Q.Q.Q.Q.Q.Q.Q.Q.Q.Q.Q.Q.Q.Q.Q.Q.Q.Q.Q.Q.Q.W.Q.Z.  ",
"b K.Q.W.Q.Q.Q.Q.Q.Q.Q.Q.Q.Q.Q.Q.Q.Q.Q.Q.Q.Q.Q.Q.Q.Q.Q.Q.Q.Q.Q.Q.Q.Q.Q.Q.Q.Q.Q.Q.Q.Q.Q.Q.Q.Q.Q.Q.Q.Q.Q.Q.Q.Q.Q.Q.Q.Q.Q.Q.W.Q.Z.  ",
"b K.Q.W.Q.Q.Q.Q.Q.Q.Q.Q.Q.Q.Q.Q.Q.Q.Q.Q.Q.Q.Q.Q.Q.Q.Q.Q.Q.Q.Q.Q.Q.Q.Q.Q.Q.Q.Q.Q.Q.Q.Q.Q.Q.Q.Q.Q.Q.Q.Q.Q.Q.Q.Q.Q.Q.Q.Q.Q.W.Q.Z.  ",
"b K.Q.W.Q.Q.Q.Q.Q.Q.Q.Q.Q.Q.Q.Q.Q.Q.Q.Q.Q.Q.Q.Q.Q.Q.Q.Q.Q.Q.Q.Q.Q.Q.Q.Q.Q.Q.Q.Q.Q.Q.Q.Q.Q.Q.Q.Q.Q.Q.Q.Q.Q.Q.Q.Q.Q.Q.Q.Q.W.Q.Z.  ",
"b K.Q.W.Q.Q.Q.Q.Q.Q.Q.Q.Q.Q.Q.Q.Q.Q.Q.Q.Q.Q.Q.Q.Q.Q.Q.Q.Q.Q.Q.Q.Q.Q.Q.Q.Q.Q.Q.Q.Q.Q.Q.Q.Q.Q.Q.Q.Q.Q.Q.Q.Q.Q.Q.Q.Q.Q.Q.Q.W.Q.Z.  ",
"b K.Q.W.Q.Q.Q.Q.Q.Q.Q.Q.Q.Q.Q.Q.Q.Q.Q.Q.Q.Q.Q.Q.Q.Q.Q.Q.Q.Q.Q.Q.Q.Q.Q.Q.Q.Q.Q.Q.Q.Q.Q.Q.Q.Q.Q.Q.Q.Q.Q.Q.Q.Q.Q.Q.Q.Q.Q.Q.W.Q.Z.  ",
"b K.Q.W.Q.Q.Q.Q.Q.Q.Q.Q.Q.Q.Q.Q.Q.Q.Q.Q.Q.Q.Q.Q.Q.Q.Q.Q.Q.Q.Q.Q.Q.Q.Q.Q.Q.Q.Q.Q.Q.Q.Q.Q.Q.Q.Q.Q.Q.Q.Q.Q.Q.Q.Q.Q.Q.Q.Q.Q.W.Q.Z.  ",
"b K.Q.W.Q.Q.Q.Q.Q.Q.Q.Q.E.E.E.E.E.Q.Q.Q.Q.Q.Q.Q.Q.Q.Q.Q.Q.Q.Q.Q.Q.Q.Q.Q.Q.Q.Q.Q.Q.Q.Q.Q.Q.Q.Q.W.E.E.E.E.W.Q.Q.Q.Q.Q.Q.Q.W.Q.Z.  ",
"b K.Q.W.Q.Q.Q.Q.Q.Q.E.Q.Q.Q.Q.Q.Q.Q.E.Q.Q.Q.Q.Q.Q.Q.Q.Q.Q.Q.Q.Q.Q.Q.Q.Q.Q.Q.Q.Q.Q.Q.Q.Q.Q.Q.E.Q.Q.Q.Q.Q.Q.W.W.Q.Q.Q.Q.Q.W.Q.Z.  ",
"b K.Q.W.Q.Q.Q.Q.Q.W.Q.E.k.<.&.3.b.Q.Q.E.Q.Q.Q.Q.Q.Q.Q.Q.Q.Q.Q.Q.Q.Q.Q.Q.Q.Q.Q.Q.Q.Q.Q.Q.W.W.Q.U.f.:.*.7.N.Q.Q.E.Q.Q.Q.Q.W.Q.Z.  ",
"b K.Q.W.Q.Q.Q.Q.W.Q.s.K           R n.Q.E.Q.Q.Q.Q.Q.Q.Q.Q.Q.Q.Q.Q.Q.Q.Q.Q.Q.Q.Q.Q.Q.Q.W.Q.Q.0.A           ^ S.Q.E.Q.Q.Q.W.Q.Z.  ",
"b K.Q.W.Q.Q.Q.W.Q.:.    0 r r r 7     a.Q.E.Q.Q.Q.Q.Q.Q.Q.Q.Q.Q.Q.Q.Q.Q.Q.Q.Q.Q.Q.Q.Q.W.Q.X.    e r r r 4   ; v.Q.E.Q.Q.W.Q.Z.  ",
"b K.Q.W.Q.Q.E.Q.p.  q 9           i     B.Q.E.Q.Q.Q.Q.Q.Q.Q.Q.Q.Q.Q.Q.Q.Q.Q.Q.Q.Q.Q.E.Q.1.  g <           d   z H.Q.W.Q.W.Q.Z.  ",
"b K.Q.W.Q.W.Q.T.F   8   .       X   p   ~ Q.W.Q.Q.Q.Q.Q.Q.Q.Q.Q.Q.Q.Q.Q.Q.Q.Q.Q.Q.W.Q.H.y   <   .       X   g    .Q.E.Q.W.Q.Z.  ",
"b K.Q.W.Q.E.Q.d.  t   .           . . *   Z.Q.W.Q.Q.Q.Q.Q.Q.Q.Q.Q.Q.Q.Q.Q.Q.Q.Q.Q.E.Q.5.  i               X >   m P.Q.W.W.Q.Z.  ",
"b K.Q.W.Q.E.Q.&.  t               .   w   i.Q.E.Q.Q.Q.Q.Q.Q.Q.Q.Q.Q.Q.Q.Q.Q.Q.Q.Q.E.Q.]   r                 O 1   v.Q.E.W.Q.Z.  ",
"b K.Q.W.Q.E.Q.o.  r                   e   9.Q.E.Q.Q.Q.Q.Q.Q.Q.Q.Q.Q.Q.Q.Q.Q.Q.Q.Q.W.Q.)   q                 . 7   j.Q.E.W.Q.Z.  ",
"b K.Q.W.Q.E.Q.&.  t               .   w   i.Q.E.Q.Q.Q.Q.Q.Q.Q.Q.Q.Q.Q.Q.Q.Q.Q.Q.Q.E.Q.[   r                 O 1   v.Q.E.W.Q.C.  ",
"b K.Q.W.Q.E.Q.f.  t   .           . X &   A.Q.W.Q.Q.Q.Q.Q.Q.Q.Q.Q.Q.Q.Q.Q.Q.Q.Q.Q.E.Q.6.  i               X >   N P.Q.W.W.Q.C.  ",
"v K.Q.W.Q.Q.Q.R.H   9   .     . .   a   / Q.W.Q.Q.Q.Q.Q.Q.Q.Q.Q.Q.Q.Q.Q.Q.Q.Q.Q.Q.W.Q.J.d   1   .     . .   h   X.Q.E.Q.W.Q.C.  ",
"b K.Q.W.Q.Q.E.Q.s.  6 q           p     V.Q.E.Q.Q.Q.Q.Q.Q.Q.Q.Q.Q.Q.Q.Q.Q.Q.Q.Q.Q.Q.E.Q.4.  d 3           f   c K.Q.W.Q.W.Q.C.  ",
"a F.Q.W.Q.Q.Q.E.Q.2.    0 t t t 5     d.Q.E.Q.Q.Q.Q.Q.Q.Q.Q.Q.Q.Q.Q.Q.Q.Q.Q.Q.Q.Q.Q.Q.W.Q.O.    e t t t 1   y n.Q.E.Q.Q.W.Q.n.  ",
"  x.Q.E.Q.Q.Q.Q.W.Q.g.P           E M.Q.E.Q.Q.Q.Q.Q.Q.Q.Q.Q.Q.Q.Q.Q.Q.Q.Q.Q.Q.Q.Q.Q.Q.W.Q.Q.e.D           _ D.Q.E.Q.Q.Q.E.Q.t.  ",
"  *.Q.E.Q.Q.Q.Q.Q.E.Q.W.z.4.;.8.m.Q.Q.E.Q.Q.Q.Q.Q.Q.Q.Q.Q.Q.Q.Q.Q.Q.Q.Q.Q.Q.Q.Q.Q.Q.Q.Q.W.W.Q.T.j.2.;.q.C.Q.Q.E.Q.Q.Q.Q.E.Q.'   ",
"  G T.Q.W.Q.Q.Q.Q.Q.E.Q.Q.Q.Q.Q.Q.W.E.Q.Q.Q.Q.Q.Q.Q.Q.Q.Q.Q.Q.Q.Q.Q.Q.Q.Q.Q.Q.Q.Q.Q.Q.Q.Q.Q.E.Q.Q.Q.Q.Q.Q.W.W.Q.Q.Q.Q.W.Q.G.i   ",
"r   :.Q.R.Q.Q.Q.Q.Q.Q.Q.E.E.E.E.E.Q.Q.Q.Q.Q.Q.Q.Q.Q.Q.Q.Q.Q.Q.Q.Q.Q.Q.Q.Q.Q.Q.Q.Q.Q.Q.Q.Q.Q.Q.Q.E.E.E.E.W.Q.Q.Q.Q.Q.Q.E.Q.|   r ",
"# #   z.Q.R.W.Q.Q.Q.Q.Q.Q.Q.Q.Q.Q.Q.Q.Q.Q.Q.Q.Q.Q.Q.Q.Q.Q.Q.Q.Q.Q.Q.Q.Q.Q.Q.Q.Q.Q.Q.Q.Q.Q.Q.Q.Q.Q.Q.Q.Q.Q.Q.Q.Q.Q.W.R.Q.r.  8   ",
"  2   9 l.Q.Q.E.E.W.W.W.W.W.W.W.W.W.W.W.W.W.W.W.W.W.W.W.W.W.W.W.W.W.W.W.W.W.W.W.W.W.W.W.W.W.W.W.W.W.W.W.W.W.W.E.E.Q.Q.t.    =   ",
".   5     *.U.Q.Q.Q.Q.Q.Q.Q.Q.Q.Q.Q.Q.Q.Q.Q.Q.Q.Q.Q.Q.Q.Q.Q.Q.Q.Q.Q.Q.Q.Q.Q.Q.Q.Q.Q.Q.Q.Q.Q.Q.Q.Q.Q.Q.Q.Q.Q.Q.Q.Q.K.X.    ,     ",
"  .   1 *   A @.j.Z.F.G.G.G.G.G.G.G.G.G.G.G.G.G.G.G.G.G.G.G.G.G.G.G.G.G.G.G.G.G.G.G.G.G.G.G.G.G.G.G.G.G.G.F.C.s...x   6 -   .   ",
"    .   @ r         p s a s a s s s s s a s s s s s s s a s s s s s s s a s s s s s s s a s s s a s a a s u         r           "
};
