/* XPM */
static char *result[] = {
/* columns rows colors chars-per-pixel */
"64 64 169 2 ",
"   c black",
".  c #010101",
"X  c #020202",
"o  c gray1",
"O  c #040404",
"+  c gray2",
"@  c #060606",
"#  c #070707",
"$  c #090909",
"%  c gray4",
"&  c #0B0B0B",
"*  c #0C0C0C",
"=  c gray5",
"-  c #0E0E0E",
";  c gray6",
":  c #101010",
">  c #111111",
",  c gray7",
"<  c #131313",
"1  c gray8",
"2  c #151515",
"3  c #161616",
"4  c gray9",
"5  c #181818",
"6  c #191919",
"7  c gray10",
"8  c #1B1B1B",
"9  c gray11",
"0  c #1D1D1D",
"q  c #1E1E1E",
"w  c gray12",
"e  c #202020",
"r  c gray13",
"t  c #222222",
"y  c #232323",
"u  c gray14",
"i  c #252525",
"p  c gray15",
"a  c #272727",
"s  c #282828",
"d  c gray16",
"f  c #2A2A2A",
"g  c gray17",
"h  c #2C2C2C",
"j  c #323232",
"k  c #393939",
"l  c #3A3A3A",
"z  c gray23",
"x  c #434343",
"c  c #444444",
"v  c gray27",
"b  c #464646",
"n  c #484848",
"m  c #494949",
"M  c #4B4B4B",
"N  c gray30",
"B  c #4E4E4E",
"V  c #515151",
"C  c gray32",
"Z  c gray33",
"A  c #565656",
"S  c gray34",
"D  c #585858",
"F  c #5A5A5A",
"G  c #5B5B5B",
"H  c gray37",
"J  c #626262",
"K  c gray39",
"L  c gray40",
"P  c #6A6A6A",
"I  c gray42",
"U  c #6C6C6C",
"Y  c #717171",
"T  c #727272",
"R  c gray45",
"E  c #747474",
"W  c gray48",
"Q  c #7B7B7B",
"!  c #7E7E7E",
"~  c #818181",
"^  c gray51",
"/  c #848484",
"(  c #888888",
")  c #8B8B8B",
"_  c #8E8E8E",
"`  c gray57",
"'  c #A0A0A0",
"]  c gray66",
"[  c #AAAAAA",
"{  c gray67",
"}  c #ACACAC",
"|  c #AFAFAF",
" . c #B2B2B2",
".. c gray70",
"X. c #B4B4B4",
"o. c gray71",
"O. c #B6B6B6",
"+. c #B7B7B7",
"@. c gray72",
"#. c gray73",
"$. c #BBBBBB",
"%. c #BCBCBC",
"&. c gray74",
"*. c gray",
"=. c gray75",
"-. c #C0C0C0",
";. c #C1C1C1",
":. c gray76",
">. c #C3C3C3",
",. c gray77",
"<. c #C5C5C5",
"1. c #C6C6C6",
"2. c gray78",
"3. c #C8C8C8",
"4. c gray79",
"5. c #CACACA",
"6. c #CBCBCB",
"7. c gray80",
"8. c #CDCDCD",
"9. c #CECECE",
"0. c gray81",
"q. c #D0D0D0",
"w. c gray82",
"e. c #D2D2D2",
"r. c LightGray",
"t. c gray83",
"y. c #D5D5D5",
"u. c gray84",
"i. c #D7D7D7",
"p. c #D8D8D8",
"a. c gray85",
"s. c #DADADA",
"d. c gray86",
"f. c gainsboro",
"g. c #DDDDDD",
"h. c gray87",
"j. c #DFDFDF",
"k. c gray88",
"l. c #E1E1E1",
"z. c #E2E2E2",
"x. c gray89",
"c. c #E4E4E4",
"v. c gray90",
"b. c #E6E6E6",
"n. c #E7E7E7",
"m. c gray91",
"M. c #E9E9E9",
"N. c #EAEAEA",
"B. c gray92",
"V. c #ECECEC",
"C. c gray93",
"Z. c #EEEEEE",
"A. c #EFEFEF",
"S. c gray94",
"D. c #F1F1F1",
"F. c gray95",
"G. c #F3F3F3",
"H. c #F4F4F4",
"J. c gray96",
"K. c #F6F6F6",
"L. c gray97",
"P. c #F8F8F8",
"I. c #F9F9F9",
"U. c gray98",
"Y. c #FBFBFB",
"T. c gray99",
"R. c #FDFDFD",
"E. c #FEFEFE",
"W. c white",
/* pixels */
"    .   : e       b D S S S S S S S S S S S S S S S S S S S S S S S S S S S S S S S S S S S S S S S S S S D b       r -   .     ",
"  .   0     E ,.m.K.U.U.U.U.U.U.U.U.U.U.U.U.U.U.U.U.U.U.U.U.U.U.U.U.U.U.U.U.U.U.U.U.U.U.U.U.U.U.U.U.U.U.U.U.K.m.>.Y     0   .   ",
".   e   d 7.W.W.W.W.W.W.W.W.W.W.W.W.W.W.W.W.W.W.W.W.W.W.W.W.W.W.W.W.W.W.W.W.W.W.W.W.W.W.W.W.W.W.W.W.W.W.W.W.W.W.W.W.5.r   w   . ",
"  0   B V.W.E.R.E.E.E.E.E.W.W.W.E.E.E.E.E.E.E.E.E.E.E.E.E.E.E.E.E.E.E.E.E.E.E.E.E.E.E.E.E.E.E.E.E.E.W.E.E.E.E.E.R.E.W.N.m   9   ",
"-   y B.W.T.W.W.W.W.W.W.R.R.R.R.E.W.W.W.W.W.W.W.W.W.W.W.W.W.W.W.W.W.W.W.W.W.W.W.W.W.W.W.W.W.W.E.R.R.R.R.E.W.W.W.W.W.T.W.M.2   = ",
"r   3.W.T.W.W.W.W.W.R.W.W.W.W.W.W.E.E.W.W.W.W.W.W.W.W.W.W.W.W.W.W.W.W.W.W.W.W.W.W.W.W.W.W.W.R.W.W.W.W.W.W.E.E.W.W.W.W.T.W.<.  t ",
"  U W.W.W.W.W.W.W.R.W.W.x.1.$.4.n.W.W.R.W.W.W.W.W.W.W.W.W.W.W.W.W.W.W.W.W.W.W.W.W.W.W.W.W.R.W.W.l.<.$.5.M.W.W.R.W.W.W.W.W.E.L   ",
"  *.W.R.W.W.W.W.E.W.f.T           ~ b.W.R.W.W.W.W.W.W.W.W.W.W.W.W.W.W.W.W.W.W.W.W.W.W.W.E.W.i.I           ( N.W.R.W.W.W.R.W.$.  ",
"  x.W.E.W.W.W.R.W.,.    6 i p i ,     y.W.R.W.W.W.W.W.W.W.W.W.W.W.W.W.W.W.W.W.W.W.W.W.E.W.%.    8 i p u >     d.W.R.W.W.R.W.k.  ",
"j F.W.E.W.W.R.W.p.  < u o       + d     n.W.R.W.W.W.W.W.W.W.W.W.W.W.W.W.W.W.W.W.W.W.R.W.q.  e e X       @ f     V.W.E.W.E.W.S.d ",
"v K.W.E.W.W.W.R.K   w   .       .   a   / W.E.W.W.W.W.W.W.W.W.W.W.W.W.W.W.W.W.W.W.E.W.U.V   0   .       .   f   ` W.E.W.E.W.H.z ",
"b K.W.E.W.R.W.a.  u   .           X   <   m.W.E.W.W.W.W.W.W.W.W.W.W.W.W.W.W.W.W.W.R.W.w.  i   .           . &   > Z.W.E.E.W.G.k ",
"b K.W.E.W.R.W.O.  u               .   t   7.W.R.W.W.W.W.W.W.W.W.W.W.W.W.W.W.W.W.W.R.W.}   i                   r   t.W.R.E.W.G.l ",
"b K.W.E.W.R.W.]   y                   y   =.W.R.W.W.W.W.W.W.W.W.W.W.W.W.W.W.W.W.W.R.W.'   u                   u   4.W.R.E.W.G.l ",
"b K.W.E.W.R.W.X.  u               .   t   5.W.R.W.W.W.W.W.W.W.W.W.W.W.W.W.W.W.W.W.R.W.[   i                   t   e.W.R.E.W.G.l ",
"b K.W.E.W.R.W.y.  u   .           X   3   b.W.R.W.W.W.W.W.W.W.W.W.W.W.W.W.W.W.W.W.R.W.8.  i   .           . $ +   V.W.E.E.W.G.l ",
"b K.W.E.W.E.W.Y.A   7   .       .   u   W W.E.W.W.W.W.W.W.W.W.W.W.W.W.W.W.W.W.W.W.E.W.L.x   5   .       X   a   ( W.E.W.E.W.G.l ",
"b K.W.E.W.W.R.W.q.  y q .       X u o   l.W.R.W.W.W.W.W.W.W.W.W.W.W.W.W.W.W.W.W.W.W.R.W.2.  d 7         X i     n.W.E.W.E.W.G.l ",
"b K.W.E.W.W.W.E.W.+.    r p i p q     5.W.R.W.W.W.W.W.W.W.W.W.W.W.W.W.W.W.W.W.W.W.W.W.E.W.|     t i i i q     w.W.R.W.W.E.W.G.l ",
"b K.W.E.W.W.W.W.E.W.w.F           U g.W.R.W.W.W.W.W.W.W.W.W.W.W.W.W.W.W.W.W.W.W.W.W.W.W.W.W.6.C           E l.W.R.W.W.W.E.W.G.l ",
"b K.W.E.W.W.W.W.W.E.W.Y.p.@.} $.g.W.W.R.W.W.W.W.W.W.W.W.W.W.W.W.W.W.W.W.W.W.W.W.W.W.W.W.W.E.W.U.u.+.} &.j.W.W.R.W.W.W.W.E.W.G.l ",
"b K.W.E.W.W.W.W.W.W.R.W.W.W.W.W.W.W.R.W.W.W.W.W.W.W.W.W.W.W.W.W.W.W.W.W.W.W.W.W.W.W.W.W.W.W.R.W.W.W.W.W.W.W.R.W.W.W.W.W.E.W.G.l ",
"b K.W.E.W.W.W.W.W.W.W.E.T.Y.Y.Y.T.E.W.W.W.W.W.W.W.W.W.W.W.W.W.W.W.W.W.W.W.W.W.W.W.W.W.W.W.W.W.E.Y.Y.Y.Y.T.E.W.W.W.W.W.W.E.W.G.l ",
"b K.W.E.W.W.W.W.W.W.R.W.W.W.W.W.W.W.R.W.W.W.W.W.W.W.W.W.W.W.W.W.W.W.W.W.W.W.W.W.W.W.W.W.W.W.R.W.W.W.W.W.W.E.R.W.W.W.W.W.E.W.G.l ",
"b K.W.E.W.W.W.W.W.R.W.W.j.:.+.<.c.W.W.R.W.W.W.W.W.W.W.W.W.W.W.W.W.W.W.W.W.W.W.W.W.W.W.W.W.E.W.R.g.-.+.1.b.W.W.R.W.W.W.W.E.W.G.l ",
"b K.W.E.W.W.W.W.E.W.p.I           Q x.W.R.W.W.W.W.W.W.W.W.W.W.W.W.W.W.W.W.W.W.W.W.W.W.W.E.W.r.K           ^ n.W.R.W.W.W.E.W.G.l ",
"b K.W.E.W.W.W.R.W.-.    8 u i y 4     e.W.R.W.W.W.W.W.W.W.W.W.W.W.W.W.W.W.W.W.W.W.W.W.E.W.@.    0 u i y 3     p.W.R.W.W.E.W.G.l ",
"b K.W.E.W.W.R.W.y.  7 r o       O a     v.W.R.W.W.W.W.W.W.W.W.W.W.W.W.W.W.W.W.W.W.W.R.W.9.  u 0 X     . O s     B.W.E.W.E.W.G.l ",
"b K.W.E.W.W.W.T.H   0   X       X   p   ~ W.E.W.W.W.W.W.W.W.W.W.W.W.W.W.W.W.W.W.W.E.W.I.N   8   .       X   f   _ W.E.W.E.W.G.l ",
"b K.W.E.W.R.W.i.  u   .           .   <   m.W.E.W.W.W.W.W.W.W.W.W.W.W.W.W.W.W.W.W.R.W.q.  i   .           . &   O C.W.E.E.W.G.l ",
"b K.W.E.W.R.W.o.  u               .   t   6.W.R.W.W.W.W.W.W.W.W.W.W.W.W.W.W.W.W.W.R.W.}   i                   r   r.W.R.E.W.G.l ",
"b K.W.E.W.R.W.]   y                   y   =.W.R.W.W.W.W.W.W.W.W.W.W.W.W.W.W.W.W.W.R.W.'   u                   u   5.W.R.E.W.G.l ",
"b K.W.E.W.R.W.o.  u               .   t   5.W.R.W.W.W.W.W.W.W.W.W.W.W.W.W.W.W.W.W.R.W.{   i                   r   r.W.R.E.W.G.l ",
"b K.W.E.W.R.W.u.  u   .           X   3   n.W.E.W.W.W.W.W.W.W.W.W.W.W.W.W.W.W.W.W.R.W.9.  i   .           . $ o   V.W.E.E.W.G.l ",
"b K.W.E.W.W.W.Y.F   0           .   i   ! W.E.W.W.W.W.W.W.W.W.W.W.W.W.W.W.W.W.W.W.E.W.P.n   7           .   d   ) W.E.W.E.W.G.l ",
"b K.W.E.W.W.R.W.e.  q e           p     x.W.R.W.W.W.W.W.W.W.W.W.W.W.W.W.W.W.W.W.W.W.R.W.5.  p 8           a     M.W.E.W.E.W.G.l ",
"b K.W.E.W.W.W.E.W.%.    r p i p 0     9.W.R.W.W.W.W.W.W.W.W.W.W.W.W.W.W.W.W.W.W.W.W.W.E.W...    t p i p 0     y.W.R.W.W.E.W.G.l ",
"b K.W.E.W.W.W.W.E.W.y.J           R k.W.R.W.W.W.W.W.W.W.W.W.W.W.W.W.W.W.W.W.W.W.W.W.W.W.E.W.0.G           Q c.W.R.W.W.W.E.W.G.l ",
"b K.W.E.W.W.W.W.W.R.W.R.d.&. .-.k.W.W.R.W.W.W.W.W.W.W.W.W.W.W.W.W.W.W.W.W.W.W.W.W.W.W.W.W.E.W.T.s.$. .;.z.W.W.R.W.W.W.W.E.W.G.l ",
"b K.W.E.W.W.W.W.W.W.R.W.W.W.W.W.W.W.R.W.W.W.W.W.W.W.W.W.W.W.W.W.W.W.W.W.W.W.W.W.W.W.W.W.W.W.R.W.W.W.W.W.W.W.R.W.W.W.W.W.E.W.G.l ",
"b K.W.E.W.W.W.W.W.W.W.E.T.Y.Y.Y.T.E.W.W.W.W.W.W.W.W.W.W.W.W.W.W.W.W.W.W.W.W.W.W.W.W.W.W.W.W.W.E.Y.Y.Y.Y.T.W.W.W.W.W.W.W.E.W.G.l ",
"b K.W.E.W.W.W.W.W.W.R.W.W.W.W.W.W.W.R.W.W.W.W.W.W.W.W.W.W.W.W.W.W.W.W.W.W.W.W.W.W.W.W.W.W.W.R.W.W.W.W.W.W.E.R.W.W.W.W.W.E.W.G.l ",
"b K.W.E.W.W.W.W.W.R.W.R.f.&.X.-.l.W.W.R.W.W.W.W.W.W.W.W.W.W.W.W.W.W.W.W.W.W.W.W.W.W.W.W.W.E.W.T.s.%.X.;.x.W.W.R.W.W.W.W.E.W.G.l ",
"b K.W.E.W.W.W.W.E.W.y.K           E k.W.R.W.W.W.W.W.W.W.W.W.W.W.W.W.W.W.W.W.W.W.W.W.W.W.E.W.q.G           Q v.W.R.W.W.W.E.W.G.l ",
"b K.W.E.W.W.W.R.W.%.    w y y y 9     9.W.R.W.W.W.W.W.W.W.W.W.W.W.W.W.W.W.W.W.W.W.W.W.E.W.X.    r y y y 9     y.W.R.W.W.E.W.G.l ",
"b K.W.E.W.W.R.W.r.  q w           i     x.W.R.W.W.W.W.W.W.W.W.W.W.W.W.W.W.W.W.W.W.W.R.W.6.  p 7           p     M.W.E.W.E.W.G.l ",
"b K.W.E.W.W.W.Y.G   0   .       X   p   ! W.E.W.W.W.W.W.W.W.W.W.W.W.W.W.W.W.W.W.W.E.W.P.m   8   .       X   f   ) W.E.W.E.W.G.l ",
"b K.W.E.W.R.W.u.  y   .           .   1   n.W.R.W.W.W.W.W.W.W.W.W.W.W.W.W.W.W.W.W.R.W.9.  i               . %     C.W.E.E.W.G.l ",
"b K.W.E.W.R.W.o.  u               .   t   5.W.R.W.W.W.W.W.W.W.W.W.W.W.W.W.W.W.W.W.R.W.{   i                   r   r.W.R.E.W.G.l ",
"b K.W.E.W.R.W.]   y                   y   =.W.R.W.W.W.W.W.W.W.W.W.W.W.W.W.W.W.W.W.R.W.'   u                   u   5.W.R.E.W.G.l ",
"b K.W.E.W.R.W.o.  u               .   t   6.W.R.W.W.W.W.W.W.W.W.W.W.W.W.W.W.W.W.W.R.W.}   i                   r   r.W.R.E.W.G.l ",
"b K.W.E.W.R.W.i.  y   .           .   <   m.W.E.W.W.W.W.W.W.W.W.W.W.W.W.W.W.W.W.W.R.W.q.  u   .           . %   O C.W.E.E.W.G.l ",
"b K.W.E.W.W.W.T.H   w   .     . .   a   ~ W.E.W.W.W.W.W.W.W.W.W.W.W.W.W.W.W.W.W.W.E.W.I.N   0   .     . .   g   _ W.E.W.E.W.G.k ",
"c J.W.E.W.W.R.W.y.  6 r           a     v.W.R.W.W.W.W.W.W.W.W.W.W.W.W.W.W.W.W.W.W.W.R.W.8.  y 9           s     N.W.E.W.E.W.H.z ",
"h D.W.E.W.W.W.R.W.-.    w u u u 8     w.W.R.W.W.W.W.W.W.W.W.W.W.W.W.W.W.W.W.W.W.W.W.W.E.W.+.    e u u u 7     p.W.R.W.W.E.W.A.t ",
"  k.W.R.W.W.W.W.E.W.p.P           Q x.W.R.W.W.W.W.W.W.W.W.W.W.W.W.W.W.W.W.W.W.W.W.W.W.W.E.W.r.J           ~ n.W.R.W.W.W.R.W.g.  ",
"  O.W.R.W.W.W.W.W.R.W.W.h.:.@.,.x.W.W.R.W.W.W.W.W.W.W.W.W.W.W.W.W.W.W.W.W.W.W.W.W.W.W.W.W.E.W.R.f.;.@.1.v.W.W.R.W.W.W.W.R.W...  ",
"  F Y.W.E.W.W.W.W.W.R.W.W.W.W.W.W.W.R.W.W.W.W.W.W.W.W.W.W.W.W.W.W.W.W.W.W.W.W.W.W.W.W.W.W.W.R.W.W.W.W.W.W.E.R.W.W.W.W.E.W.U.Z   ",
"y   #.W.T.W.W.W.W.W.W.W.R.R.R.R.R.W.W.W.W.W.W.W.W.W.W.W.W.W.W.W.W.W.W.W.W.W.W.W.W.W.W.W.W.W.W.W.R.R.R.R.R.W.W.W.W.W.W.T.W.+.  y ",
"# @   h.W.T.E.W.W.W.W.W.W.W.W.W.W.W.W.W.W.W.W.W.W.W.W.W.W.W.W.W.W.W.W.W.W.W.W.W.W.W.W.W.W.W.W.W.W.W.W.W.W.W.W.W.W.E.T.W.f.  * @ ",
"  4   9 g.W.W.R.R.E.E.E.E.E.E.E.E.E.E.E.E.E.E.E.E.E.E.E.E.E.E.E.E.E.E.E.E.E.E.E.E.E.E.E.E.E.E.E.E.E.E.E.E.E.E.R.R.W.W.d.>   3   ",
".   7     o.I.W.W.W.W.W.W.W.W.W.W.W.W.W.W.W.W.W.W.W.W.W.W.W.W.W.W.W.W.W.W.W.W.W.W.W.W.W.W.W.W.W.W.W.W.W.W.W.W.W.W.P...    6   . ",
"  .   3 *   N } p.N.S.D.D.D.D.D.D.D.D.D.D.D.D.D.D.D.D.D.D.D.D.D.D.D.D.D.D.D.D.D.D.D.D.D.D.D.D.D.D.D.D.D.D.S.N.p.{ M   ; 2   .   ",
"    .   + u         s f d f d f f f f f d f f f f f f f d f f f f f f f d f f f f f f f d f f f f d f d f s         u O   .     "
};
