/* XPM */
static char *result[] = {
/* columns rows colors chars-per-pixel */
"64 64 150 2 ",
"   c black",
".  c #010101",
"X  c #020202",
"o  c gray1",
"O  c #040404",
"+  c gray2",
"@  c #060606",
"#  c #070707",
"$  c #090909",
"%  c gray4",
"&  c #0B0B0B",
"*  c #0C0C0C",
"=  c gray5",
"-  c #0E0E0E",
";  c gray6",
":  c #111111",
">  c gray8",
",  c #151515",
"<  c #161616",
"1  c gray9",
"2  c #181818",
"3  c #191919",
"4  c gray10",
"5  c #1B1B1B",
"6  c gray11",
"7  c #1D1D1D",
"8  c #1E1E1E",
"9  c gray12",
"0  c #202020",
"q  c gray13",
"w  c #222222",
"e  c #232323",
"r  c gray14",
"t  c #252525",
"y  c gray15",
"u  c #272727",
"i  c #282828",
"p  c gray16",
"a  c #2A2A2A",
"s  c gray17",
"d  c #313131",
"f  c #3A3A3A",
"g  c gray23",
"h  c #3C3C3C",
"j  c #434343",
"k  c #444444",
"l  c gray27",
"z  c #464646",
"x  c #494949",
"c  c #4B4B4B",
"v  c gray30",
"b  c gray32",
"n  c #555555",
"m  c #565656",
"M  c gray34",
"N  c #5A5A5A",
"B  c gray36",
"V  c #5F5F5F",
"C  c #646464",
"Z  c #676767",
"A  c #686868",
"S  c #6A6A6A",
"D  c gray42",
"F  c #717171",
"G  c gray45",
"H  c #747474",
"J  c #767676",
"K  c gray48",
"L  c #7E7E7E",
"P  c #818181",
"I  c #848484",
"U  c gray53",
"Y  c #888888",
"T  c gray57",
"R  c #A0A0A0",
"E  c #A5A5A5",
"W  c #A9A9A9",
"Q  c gray67",
"!  c #ACACAC",
"~  c gray68",
"^  c #AFAFAF",
"/  c gray69",
"(  c #B1B1B1",
")  c gray70",
"_  c gray71",
"`  c #B6B6B6",
"'  c #B7B7B7",
"]  c gray72",
"[  c gray73",
"{  c #BBBBBB",
"}  c #BCBCBC",
"|  c gray74",
" . c gray75",
".. c #C0C0C0",
"X. c #C1C1C1",
"o. c gray76",
"O. c #C3C3C3",
"+. c gray77",
"@. c #C5C5C5",
"#. c #C6C6C6",
"$. c #C8C8C8",
"%. c gray79",
"&. c #CACACA",
"*. c #CBCBCB",
"=. c #CECECE",
"-. c gray81",
";. c #D0D0D0",
":. c gray82",
">. c #D2D2D2",
",. c LightGray",
"<. c gray83",
"1. c #D5D5D5",
"2. c gray84",
"3. c #D7D7D7",
"4. c #D8D8D8",
"5. c #DADADA",
"6. c gray86",
"7. c gainsboro",
"8. c #DDDDDD",
"9. c gray87",
"0. c #DFDFDF",
"q. c gray88",
"w. c #E1E1E1",
"e. c #E2E2E2",
"r. c gray89",
"t. c gray90",
"y. c #E6E6E6",
"u. c #E7E7E7",
"i. c gray91",
"p. c #E9E9E9",
"a. c #EAEAEA",
"s. c gray92",
"d. c #ECECEC",
"f. c #EEEEEE",
"g. c #EFEFEF",
"h. c gray94",
"j. c #F1F1F1",
"k. c gray95",
"l. c #F4F4F4",
"z. c gray96",
"x. c #F6F6F6",
"c. c gray97",
"v. c #F8F8F8",
"b. c #F9F9F9",
"n. c gray98",
"m. c #FBFBFB",
"M. c gray99",
"N. c #FDFDFD",
"B. c #FEFEFE",
"V. c white",
/* pixels */
"    .   ; 0       z M m M M M M M M M M M M M M M M M M M M M M M M M M M M M M M M M M M M M M M M M M m M l       q ;   .     ",
"  .   7     H +.i.x.n.b.n.n.n.n.n.n.n.n.n.n.n.n.n.n.n.n.n.n.n.n.n.n.n.n.n.n.n.n.n.n.n.n.n.n.n.n.n.n.n.n.b.n.x.u.O.F     7   .   ",
".   9   i *.V.V.V.V.V.V.V.V.V.V.V.V.V.V.V.V.V.V.V.V.V.V.V.V.V.V.V.V.V.V.V.V.V.V.V.V.V.V.V.V.V.V.V.V.V.V.V.V.V.V.V.V.&.q   9   . ",
"  7   v s.V.B.N.B.B.B.B.B.B.B.B.B.B.B.B.B.B.B.B.B.B.B.B.B.B.B.B.B.B.B.B.B.B.B.B.B.B.B.B.B.B.B.B.B.B.V.B.B.B.B.B.N.B.V.a.x   6   ",
"-   q a.V.M.V.V.V.V.V.V.V.V.V.V.V.V.V.V.V.V.V.V.V.V.V.V.V.V.V.V.V.V.V.V.V.V.V.V.V.V.V.V.V.V.V.V.N.N.N.N.B.V.V.V.V.V.M.V.p.<   = ",
"q   $.V.M.V.V.V.V.V.V.V.V.V.V.V.V.V.V.V.V.V.V.V.V.V.V.V.V.V.V.V.V.V.V.V.V.V.V.V.V.V.V.V.V.V.N.V.V.V.V.V.V.B.B.V.V.V.V.M.V.@.  w ",
"  D V.V.V.V.V.V.V.V.V.V.V.V.V.V.V.V.V.V.V.V.V.V.V.V.V.V.V.V.V.V.V.V.V.V.V.V.V.V.V.V.V.V.V.N.V.V.w.@.{ *.p.V.V.N.V.V.V.V.V.B.Z   ",
"  | V.N.V.V.V.V.V.V.V.V.V.V.V.V.V.V.V.V.V.V.V.V.V.V.V.V.V.V.V.V.V.V.V.V.V.V.V.V.V.V.V.V.B.V.3.D           Y a.V.N.V.V.V.N.V.{   ",
"  r.V.B.V.V.V.V.V.V.V.V.V.V.V.V.V.V.V.V.V.V.V.V.V.V.V.V.V.V.V.V.V.V.V.V.V.V.V.V.V.V.V.B.V.}     5 t y r :     6.V.N.V.V.N.V.w.  ",
"d k.V.B.V.V.V.V.V.V.V.V.V.V.V.V.V.V.V.V.V.V.V.V.V.V.V.V.V.V.V.V.V.V.V.V.V.V.V.V.V.V.N.V.:.  9 0 X       @ a     d.V.B.V.B.V.j.s ",
"k z.V.B.V.V.V.V.V.V.V.V.V.V.V.V.V.V.V.V.V.V.V.V.V.V.V.V.V.V.V.V.V.V.V.V.V.V.V.V.V.B.V.n.b   7   .       .   a   T V.B.V.B.V.l.h ",
"l x.V.B.V.V.V.V.V.V.V.V.V.V.V.V.V.V.V.V.V.V.V.V.V.V.V.V.V.V.V.V.V.V.V.V.V.V.V.V.V.N.V.:.  t   .           . &   ; f.V.B.B.V.l.f ",
"l x.V.B.V.V.V.V.V.V.V.V.V.V.V.V.V.V.V.V.V.V.V.V.V.V.V.V.V.V.V.V.V.V.V.V.V.V.V.V.V.N.V.~   y                   q   <.V.N.B.V.l.g ",
"l x.V.B.V.V.V.V.V.V.V.V.V.V.V.V.V.V.V.V.V.V.V.V.V.V.V.V.V.V.V.V.V.V.V.V.V.V.V.V.V.N.V.R   r                   r   %.V.N.B.V.l.g ",
"l x.V.B.V.V.V.V.V.V.V.V.V.V.V.V.V.V.V.V.V.V.V.V.V.V.V.V.V.V.V.V.V.V.V.V.V.V.V.V.V.N.V.Q   t                   w   >.V.N.B.V.l.g ",
"l x.V.B.V.V.V.V.V.V.V.V.V.V.V.V.V.V.V.V.V.V.V.V.V.V.V.V.V.V.V.V.V.V.V.V.V.V.V.V.V.N.V.=.  t   .           . $ @   s.V.B.B.V.l.g ",
"l x.V.B.V.V.V.V.V.V.V.V.V.V.V.V.V.V.V.V.V.V.V.V.V.V.V.V.V.V.V.V.V.V.V.V.V.V.V.V.V.B.V.c.k   2   .       X   u   U V.B.V.B.V.l.g ",
"l x.V.B.V.V.V.V.V.V.V.V.V.V.V.V.V.V.V.V.V.V.V.V.V.V.V.V.V.V.V.V.V.V.V.V.V.V.V.V.V.V.N.V.$.  p 4         X t     y.V.B.V.B.V.l.g ",
"l x.V.B.V.V.V.V.V.V.V.V.V.V.V.V.V.V.V.V.V.V.V.V.V.V.V.V.V.V.V.V.V.V.V.V.V.V.V.V.V.V.V.B.V.^     w t t t 8     :.V.N.V.V.B.V.l.g ",
"l x.V.B.V.V.V.V.V.V.V.V.V.V.V.V.V.V.V.V.V.V.V.V.V.V.V.V.V.V.V.V.V.V.V.V.V.V.V.V.V.V.V.V.V.V.*.b           G w.V.N.V.V.V.B.V.l.g ",
"l x.V.B.V.V.V.V.V.V.V.V.V.V.V.V.V.V.V.V.V.V.V.V.V.V.V.V.V.V.V.V.V.V.V.V.V.V.V.V.V.V.V.V.V.B.V.n.1.' ! | 0.V.V.N.V.V.V.V.B.V.l.g ",
"l x.V.B.V.V.V.V.V.V.V.V.V.V.V.V.V.V.V.V.V.V.V.V.V.V.V.V.V.V.V.V.V.V.V.V.V.V.V.V.V.V.V.V.V.V.N.V.V.V.V.V.V.V.N.V.V.V.V.V.B.V.l.g ",
"l x.V.B.V.V.V.V.V.V.V.V.V.V.V.V.V.V.V.V.V.V.V.V.V.V.V.V.V.B.N.N.N.N.N.V.V.V.V.V.V.V.V.V.V.V.V.B.N.N.N.N.N.V.V.V.V.V.V.V.B.V.l.g ",
"l x.V.B.V.V.V.V.V.V.V.V.V.V.V.V.V.V.V.V.V.V.V.V.V.V.V.V.N.V.V.V.V.V.V.B.N.V.V.V.V.V.V.V.V.V.V.V.V.V.V.V.V.V.V.V.V.V.V.V.B.V.l.g ",
"l x.V.B.V.V.V.V.V.V.V.V.V.V.V.V.V.V.V.V.V.V.V.V.V.V.V.N.V.B.9.X.' #.t.V.V.N.V.V.V.V.V.V.V.V.V.V.V.V.V.V.V.V.V.V.V.V.V.V.B.V.l.g ",
"l x.V.B.V.V.V.V.V.V.V.V.V.V.V.V.V.V.V.V.V.V.V.V.V.V.B.V.2.A           L t.V.N.V.V.V.V.V.V.V.V.V.V.V.V.V.V.V.V.V.V.V.V.V.B.V.l.g ",
"l x.V.B.V.V.V.V.V.V.V.V.V.V.V.V.V.V.V.V.V.V.V.V.V.N.V.}     6 r t e <     1.V.N.V.V.V.V.V.V.V.V.V.V.V.V.V.V.V.V.V.V.V.V.B.V.l.g ",
"l x.V.B.V.V.V.V.V.V.V.V.V.V.V.V.V.V.V.V.V.V.V.V.N.V.>.  9 9 o     . O u     i.V.N.V.V.V.V.V.V.V.V.V.V.V.V.V.V.V.V.V.V.V.B.V.l.g ",
"l x.V.B.V.V.V.V.V.V.V.V.V.V.V.V.V.V.V.V.V.V.V.B.V.m.M   7   X       X   i   Y V.B.V.V.V.V.V.V.V.V.V.V.V.V.V.V.V.V.V.V.V.B.V.l.g ",
"l x.V.B.V.V.V.V.V.V.V.V.V.V.V.V.V.V.V.V.V.V.V.N.V.1.  t   .           X # %   a.V.B.V.V.V.V.V.V.V.V.V.V.V.V.V.V.V.V.V.V.B.V.l.g ",
"l x.V.B.V.V.V.V.V.V.V.V.V.V.V.V.V.V.V.V.V.V.V.N.V.(   y                 X 0   -.V.N.V.V.V.V.V.V.V.V.V.V.V.V.V.V.V.V.V.V.B.V.l.g ",
"l x.V.B.V.V.V.V.V.V.V.V.V.V.V.V.V.V.V.V.V.V.V.N.V.E   r                   w   @.V.N.V.V.V.V.V.V.V.V.V.V.V.V.V.V.V.V.V.V.B.V.l.g ",
"l x.V.B.V.V.V.V.V.V.V.V.V.V.V.V.V.V.V.V.V.V.V.N.V./   y                 X 0   -.V.N.V.V.V.V.V.V.V.V.V.V.V.V.V.V.V.V.V.V.B.V.l.g ",
"l x.V.B.V.V.V.V.V.V.V.V.V.V.V.V.V.V.V.V.V.V.V.N.V.,.  y   .           X @ -   p.V.B.V.V.V.V.V.V.V.V.V.V.V.V.V.V.V.V.V.V.B.V.l.g ",
"l x.V.B.V.V.V.V.V.V.V.V.V.V.V.V.V.V.V.V.V.V.V.B.V.n.b   6           .   u   I V.B.V.V.V.V.V.V.V.V.V.V.V.V.V.V.V.V.V.V.V.B.V.l.g ",
"l x.V.B.V.V.V.V.V.V.V.V.V.V.V.V.V.V.V.V.V.V.V.V.N.V.-.  w 8           y     t.V.N.V.V.V.V.V.V.V.V.V.V.V.V.V.V.V.V.V.V.V.B.V.l.g ",
"l x.V.B.V.V.V.V.V.V.V.V.V.V.V.V.V.V.V.V.V.V.V.V.V.B.V.'     w y t y 7     :.V.N.V.V.V.V.V.V.V.V.V.V.V.V.V.V.V.V.V.V.V.V.B.V.l.g ",
"l x.V.B.V.V.V.V.V.V.V.V.V.V.V.V.V.V.V.V.V.V.V.V.V.V.B.V.>.V           J e.V.N.V.V.V.V.V.V.V.V.V.V.V.V.V.V.V.V.V.V.V.V.V.B.V.l.g ",
"l x.V.B.V.V.V.V.V.V.V.V.V.V.V.V.V.V.V.V.V.V.V.V.V.V.V.B.V.M.5.} ( ..w.V.V.N.V.V.V.V.V.V.V.V.V.V.V.V.V.V.V.V.V.V.V.V.V.V.B.V.l.g ",
"l x.V.B.V.V.V.V.V.V.V.V.V.V.V.V.V.V.V.V.V.V.V.V.V.V.V.V.N.V.V.V.V.V.V.V.N.V.V.V.V.V.V.V.V.V.V.V.V.V.V.V.V.V.V.V.V.V.V.V.B.V.l.g ",
"l x.V.B.V.V.V.V.V.V.V.V.N.N.N.N.N.V.V.V.V.V.V.V.V.V.V.V.V.V.N.N.N.N.N.V.V.V.V.V.V.V.V.V.V.V.V.V.V.V.V.V.V.V.V.V.V.V.V.V.B.V.l.g ",
"l x.V.B.V.V.V.V.V.V.N.V.V.V.V.V.V.V.N.V.V.V.V.V.V.V.V.V.V.V.V.V.V.V.V.V.V.V.V.V.V.V.V.V.V.V.V.V.V.V.V.V.V.V.V.V.V.V.V.V.B.V.l.g ",
"l x.V.B.V.V.V.V.V.N.V.N.7.| _ ..w.V.V.N.V.V.V.V.V.V.V.V.V.V.V.V.V.V.V.V.V.V.V.V.V.V.V.V.V.V.V.V.V.V.V.V.V.V.V.V.V.V.V.V.B.V.l.g ",
"l x.V.B.V.V.V.V.B.V.1.C           H q.V.N.V.V.V.V.V.V.V.V.V.V.V.V.V.V.V.V.V.V.V.V.V.V.V.V.V.V.V.V.V.V.V.V.V.V.V.V.V.V.V.B.V.l.g ",
"l x.V.B.V.V.V.N.V.}     9 e e e 6     =.V.N.V.V.V.V.V.V.V.V.V.V.V.V.V.V.V.V.V.V.V.V.V.V.V.V.V.V.V.V.V.V.V.V.V.V.V.V.V.V.B.V.l.g ",
"l x.V.B.V.V.N.V.,.  8 9           t     r.V.N.V.V.V.V.V.V.V.V.V.V.V.V.V.V.V.V.V.V.V.V.V.V.V.V.V.V.V.V.V.V.V.V.V.V.V.V.V.B.V.l.g ",
"l x.V.B.V.V.V.M.B   8   .       X   y   L V.B.V.V.V.V.V.V.V.V.V.V.V.V.V.V.V.V.V.V.V.V.V.V.V.V.V.V.V.V.V.V.V.V.V.V.V.V.V.B.V.l.g ",
"l x.V.B.V.N.V.3.  e   .           .   ,   y.V.N.V.V.V.V.V.V.V.V.V.V.V.V.V.V.V.V.V.V.V.V.V.V.V.V.V.V.V.V.V.V.V.V.V.V.V.V.B.V.l.g ",
"l x.V.B.V.N.V._   r               .   w   &.V.N.V.V.V.V.V.V.V.V.V.V.V.V.V.V.V.V.V.V.V.V.V.V.V.V.V.V.V.V.V.V.V.V.V.V.V.V.B.V.l.g ",
"l x.V.B.V.N.V.W   e                   e    .V.N.V.V.V.V.V.V.V.V.V.V.V.V.V.V.V.V.V.V.V.V.V.V.V.V.V.V.V.V.V.V.V.V.V.V.V.V.B.V.l.g ",
"l x.V.B.V.N.V.`   r               .   w   *.V.N.V.V.V.V.V.V.V.V.V.V.V.V.V.V.V.V.V.V.V.V.V.V.V.V.V.V.V.V.V.V.V.V.V.V.V.V.B.V.l.g ",
"l x.V.B.V.N.V.4.  e   .           .   >   u.V.B.V.V.V.V.V.V.V.V.V.V.V.V.V.V.V.V.V.V.V.V.V.V.V.V.V.V.V.V.V.V.V.V.V.V.V.V.B.V.l.g ",
"l x.V.B.V.V.V.M.V   9   .     . .   u   P V.B.V.V.V.V.V.V.V.V.V.V.V.V.V.V.V.V.V.V.V.V.V.V.V.V.V.V.V.V.V.V.V.V.V.V.V.V.V.B.V.l.f ",
"j z.V.B.V.V.N.V.1.  3 q           u     t.V.N.V.V.V.V.V.V.V.V.V.V.V.V.V.V.V.V.V.V.V.V.V.V.V.V.V.V.V.V.V.V.V.V.V.V.V.V.V.B.V.l.h ",
"s j.V.B.V.V.V.N.V...    9 r r r 5     ;.V.N.V.V.V.V.V.V.V.V.V.V.V.V.V.V.V.V.V.V.V.V.V.V.V.V.V.V.V.V.V.V.V.V.V.V.V.V.V.V.B.V.g.e ",
"  q.V.N.V.V.V.V.B.V.4.S           K r.V.N.V.V.V.V.V.V.V.V.V.V.V.V.V.V.V.V.V.V.V.V.V.V.V.V.V.V.V.V.V.V.V.V.V.V.V.V.V.V.V.N.V.8.  ",
"  _ V.N.V.V.V.V.V.N.V.V.9.o.] +.r.V.V.N.V.V.V.V.V.V.V.V.V.V.V.V.V.V.V.V.V.V.V.V.V.V.V.V.V.V.V.V.V.V.V.V.V.V.V.V.V.V.V.V.N.V.)   ",
"  N m.V.B.V.V.V.V.V.N.V.V.V.V.V.V.V.N.V.V.V.V.V.V.V.V.V.V.V.V.V.V.V.V.V.V.V.V.V.V.V.V.V.V.V.V.V.V.V.V.V.V.V.V.V.V.V.V.B.V.n.n   ",
"e   [ V.M.V.V.V.V.V.V.V.N.N.N.N.N.V.V.V.V.V.V.V.V.V.V.V.V.V.V.V.V.V.V.V.V.V.V.V.V.V.V.V.V.V.V.V.V.V.V.V.V.V.V.V.V.V.V.M.V.'   e ",
"# @   9.V.M.B.V.V.V.V.V.V.V.V.V.V.V.V.V.V.V.V.V.V.V.V.V.V.V.V.V.V.V.V.V.V.V.V.V.V.V.V.V.V.V.V.V.V.V.V.V.V.V.V.V.V.B.M.V.7.  & @ ",
"  1   5 8.V.V.N.N.B.B.B.B.B.B.B.B.B.B.B.B.B.B.B.B.B.B.B.B.B.B.B.B.B.B.B.B.B.B.B.B.B.B.B.B.B.B.B.B.B.B.B.B.B.B.N.N.V.V.6.>   <   ",
".   4     _ b.V.V.V.V.V.V.V.V.V.V.V.V.V.V.V.V.V.V.V.V.V.V.V.V.V.V.V.V.V.V.V.V.V.V.V.V.V.V.V.V.V.V.V.V.V.V.V.V.V.V.v.)     3   . ",
"  .   < *   v ! 4.a.h.j.j.j.j.j.j.j.j.j.j.j.j.j.j.j.j.j.j.j.j.j.j.j.j.j.j.j.j.j.j.j.j.j.j.j.j.j.j.j.j.j.j.h.a.4.! c   ; <   .   ",
"    .   + r         p a a a a a a a a a a a a a a a a a a a a a a a a a a a a a a a a a a a a a a a a a a p         r +   .     "
};
